<svg id="Ebene_1" data-name="Ebene 1" xmlns="http://www.w3.org/2000/svg" viewBox="0 0 1360.73 457.67"><defs><style>.cls-1{fill:#56a4cd;}.cls-2{fill:#b2b2b2;}.cls-3{fill:#575756;}.cls-4{fill:#99cef1;}.cls-5{fill:#f6f6f6;}.cls-6{fill:#d0ebfa;}</style></defs><title>Logo_ZWEIACHT_V3</title><path class="cls-1" d="M522.31,287.18l59.92-81.34-.14-.28h-42l3.5-19.46h79l.14.28-59.92,81.34.14.28h44.38l-3.5,19.46H522.45Z"/><path class="cls-1" d="M626.47,186.1h23l5.18,43.54c1.12,9.38,2.1,18.2,2.8,26.18h.28c3.78-8.4,8.12-17.64,12.32-26.32l21-43.4h16.24L713,229.5c1.12,8.54,2.24,17.92,3.08,26.32h.28c3.64-8.26,8-17.78,12.18-26.6l20.58-43.12h22.82l-49,101.36H699.41l-4.76-35.84c-1.12-8.54-2-16-2.8-24.08h-.28c-3.36,7.42-7.28,15.68-11.48,24.36l-17.22,35.56H639.63Z"/><path class="cls-1" d="M782.43,186.1h61.46l-3.5,19.46h-39.2l-3.5,19.88H831l-3.22,18.48H794.47L790.27,268h40.6l-3.5,19.46H764.51Z"/><path class="cls-1" d="M859.43,186.1h22.26L863.77,287.46H841.51Z"/><path class="cls-1" d="M931.1,186.1h21.7l22.4,101.36h-23l-4.34-21.28H908.56l-11.9,21.28H873.28Zm-12.88,62.58h26l-2.52-12.18c-1.54-7.42-2.94-15.12-4.2-22.68h-.28c-3.78,7.42-8.12,15.26-12.32,22.82Z"/><path class="cls-1" d="M1057,284.52a72.81,72.81,0,0,1-25.33,4.48c-27.87,0-49.29-16.24-49.29-45.08a61.59,61.59,0,0,1,17.79-43.26c10.63-10.5,24.78-16.1,41-16.1a70.11,70.11,0,0,1,29.69,6.72l-3.78,21.56c-8.83-5.18-17.64-8.26-26.88-8.26-10.08,0-18.34,3.64-24.5,9.8-7.14,7.14-10.92,17.78-10.92,27.58,0,17.36,11.62,27,30,27a56.37,56.37,0,0,0,26.17-6.72Z"/><path class="cls-1" d="M1088.88,186.1h22.26l-6.86,39.2h42.42l6.86-39.2h22.26L1157.9,287.46h-22.26l7.56-42.7h-42.42l-7.56,42.7H1071Z"/><path class="cls-1" d="M1217,205.56h-32.34l3.5-19.46h86.94l-3.5,19.46h-32.34l-14.42,81.9h-22.26Z"/><rect class="cls-2" x="66.4" y="30.01" width="398.89" height="398.89"/><path class="cls-3" d="M66.39,30V194.65c58.65,21.61,136.83,34.8,222.69,34.8,64.81,0,125.25-7.52,176.21-20.5V30Z"/><polygon class="cls-4" points="207.64 199.48 265.76 263.07 265.76 57.42 207.64 199.48"/><polygon class="cls-1" points="323.96 199.39 265.76 263.07 265.76 57.42 323.96 199.39"/><polygon class="cls-5" points="265.76 348.8 366.41 390.24 354.38 221.65 382 60.66 265.76 348.8"/><polygon class="cls-6" points="265.76 348.8 265.76 263.07 382 60.66 265.76 348.8"/><polygon class="cls-6" points="265.76 348.8 165.11 390.24 177.13 221.65 149.52 60.66 265.76 348.8"/><polygon class="cls-5" points="265.76 348.8 265.76 263.07 149.52 60.66 265.76 348.8"/><polygon class="cls-4" points="265.76 348.8 366.41 390.24 265.76 376.21 265.76 348.8"/><polygon class="cls-1" points="265.76 348.8 165.11 390.24 265.76 376.21 265.76 348.8"/></svg>